<svg xmlns="http://www.w3.org/2000/svg" xmlns:xlink="http://www.w3.org/1999/xlink" width="128" zoomAndPan="magnify" viewBox="0 0 96 95.999999" height="128" preserveAspectRatio="xMidYMid meet" version="1.0"><defs><clipPath id="2081f2cc56"><path d="M 7.199219 1.445312 L 88.949219 1.445312 L 88.949219 94.445312 L 7.199219 94.445312 Z M 7.199219 1.445312 " clip-rule="nonzero"/></clipPath></defs><g clip-path="url(#2081f2cc56)"><path fill="#e44d26" d="M 14.621094 84.945312 L 7.175781 1.703125 L 88.972656 1.703125 L 81.523438 84.933594 L 48.023438 94.1875 Z M 14.621094 84.945312 " fill-opacity="1" fill-rule="nonzero"/></g><path fill="#f16529" d="M 75.140625 79.632812 L 81.511719 8.507812 L 48.074219 8.507812 L 48.074219 87.117188 Z M 75.140625 79.632812 " fill-opacity="1" fill-rule="nonzero"/><path fill="#ebebeb" d="M 48.039062 18.71875 L 22.394531 18.71875 L 25.160156 49.589844 L 48.074219 49.589844 L 48.074219 39.382812 L 34.523438 39.382812 L 33.589844 28.929688 L 48.074219 28.929688 L 48.074219 18.71875 Z M 48.074219 65.863281 L 48.03125 65.875 L 36.628906 62.804688 L 35.902344 54.664062 L 25.617188 54.664062 L 27.050781 70.691406 L 48.027344 76.472656 L 48.074219 76.460938 Z M 48.074219 65.863281 " fill-opacity="1" fill-rule="nonzero"/><path fill="#ffffff" d="M 48.039062 49.589844 L 60.652344 49.589844 L 59.492188 62.828125 L 48.070312 65.902344 L 48.070312 76.523438 L 69.0625 70.722656 L 71.875 39.378906 L 48.074219 39.378906 Z M 73.445312 21.457031 L 73.691406 18.71875 L 48.035156 18.71875 L 48.035156 28.925781 L 72.769531 28.925781 L 72.972656 26.632812 Z M 73.445312 21.457031 " fill-opacity="1" fill-rule="nonzero"/></svg>