<svg xmlns="http://www.w3.org/2000/svg" width="24" height="24" viewBox="0 0 24 24" fill="currentColor">
  <path d="M0 0v24h24v-24h-24zm16.5 8.25c.69 0 1.25.56 1.25 1.25s-.56 1.25-1.25 1.25-1.25-.56-1.25-1.25.56-1.25 1.25-1.25zm-9 0c.69 0 1.25.56 1.25 1.25s-.56 1.25-1.25 1.25-1.25-.56-1.25-1.25.56-1.25 1.25-1.25zm4.5 9c-3.037 0-5.719-1.531-7.318-3.858-.224-.328-.132-.766.205-.975.337-.209.782-.12 1.006.208 1.351 1.967 3.627 3.125 6.107 3.125s4.755-1.158 6.106-3.125c.224-.328.669-.417 1.007-.208.337.209.428.647.204.975-1.598 2.327-4.28 3.858-7.317 3.858z"/>
</svg>
