<svg xmlns="http://www.w3.org/2000/svg" width="24" height="24" viewBox="0 0 24 24" fill="currentColor">
  <path d="M12.738 18.701c-.831 0-1.635-.093-2.404-.277-.768-.184-1.477-.457-2.126-.819-.649-.362-1.207-.805-1.674-1.327-.466-.522-.806-1.119-1.018-1.791l1.214-.493c.177.542.452 1.021.824 1.437.372.415.81.765 1.314 1.05.504.285 1.057.503 1.659.656.602.152 1.227.229 1.875.229.814 0 1.545-.143 2.193-.428.648-.286 1.184-.686 1.607-1.2.423-.515.646-1.12.67-1.817h-7.518v-1.5h9.186c-.064.843-.27 1.628-.616 2.354-.347.727-.822 1.353-1.426 1.879s-1.338.931-2.202 1.216c-.864.285-1.818.428-2.862.428zm-1.636-6.743l-5.102-7.958h1.798l4.123 6.466 4.123-6.466h1.798l-5.102 7.958h-1.638z"/>
</svg>
